<svg id="Layer_1" data-name="Layer 1" xmlns="http://www.w3.org/2000/svg" viewBox="0 0 128 128"><title>JibberApp_LogoIcons</title><rect width="128" height="128" fill="#4ec1e0"/><path d="M56.13,67.58a6.78,6.78,0,0,0,.74,3.14,9.26,9.26,0,0,0,4.94,5,9.23,9.23,0,0,0,7.55,0,9.21,9.21,0,0,0,3-2,9.58,9.58,0,0,0,2-3A9.24,9.24,0,0,0,75,67V43.58A3.54,3.54,0,0,1,78.57,40a3.13,3.13,0,0,1,2.38,1,3.43,3.43,0,0,1,1,2.51V67a15.9,15.9,0,0,1-1.3,6.39,15.9,15.9,0,0,1-8.61,8.79,16.42,16.42,0,0,1-18.2-3.56,17.27,17.27,0,0,1-3.52-5.24A13.25,13.25,0,0,1,49,67.58a3.54,3.54,0,1,1,7.08,0" fill="#fff"/><path d="M66,111.22a49.83,49.83,0,0,1-25.14-6.83L21.45,111a4.15,4.15,0,0,1-5.1-5.69l7.83-16.66A50,50,0,1,1,66,111.22Zm-24.73-14a3.43,3.43,0,0,1,1.82.53A43,43,0,1,0,30.9,86.33a3.43,3.43,0,0,1,.32,3.46l-6,12.68,14.9-5.07A3.43,3.43,0,0,1,41.27,97.2Z" fill="#fff"/></svg>